<svg xmlns="http://www.w3.org/2000/svg" width="96" height="96" viewBox="0 0 96 96">
  <g fill="none" stroke="#424b48" stroke-width="5" stroke-linecap="round" stroke-linejoin="round">
    <path d="m26 34-2-13 16 7m16 0 16-7-2 13M35 8v8M48 5v10M61 8v8"/>
    <ellipse cx="48" cy="45" rx="25" ry="21"/>
    <ellipse cx="48" cy="51" rx="13" ry="8"/>
    <path d="M32 74c-6 1-10 4-10 6 0 5 12 8 26 8s26-3 26-8c0-2-4-5-10-6M19 67l-8-4M77 67l8-4M12 80H6M84 80h6"/>
  </g>
  <g fill="#424b48">
    <circle cx="38" cy="39" r="2.7"/><circle cx="58" cy="39" r="2.7"/>
    <circle cx="43" cy="51" r="2.2"/><circle cx="53" cy="51" r="2.2"/>
  </g>
</svg>
