<svg xmlns="http://www.w3.org/2000/svg" width="1000" height="760" viewBox="0 0 1000 760" role="img" aria-labelledby="title description">
  <title id="title">The scenic route</title>
  <desc id="description">A white pelican with a long golden bill, a coral scarf and orange webbed feet pedals a vintage turquoise bicycle along the coast. Fine spokes, a curved handlebar and a sunny seaside landscape complete the illustration.</desc>
  <defs>
    <linearGradient id="sky" x1="0" y1="0" x2="0" y2="1">
      <stop stop-color="#dcebe1"/>
      <stop offset="1" stop-color="#ecf0dd"/>
    </linearGradient>
    <linearGradient id="feathers" x1="0" y1="0" x2="0.85" y2="1">
      <stop stop-color="#fffdf2"/>
      <stop offset="0.68" stop-color="#f8f5e5"/>
      <stop offset="1" stop-color="#e7e8d7"/>
    </linearGradient>
    <linearGradient id="pouch" x1="0" y1="0" x2="0.6" y2="1">
      <stop stop-color="#f5c47a"/>
      <stop offset="1" stop-color="#e79759"/>
    </linearGradient>
    <linearGradient id="wing" x1="0" y1="0" x2="1" y2="1">
      <stop stop-color="#fffcef"/>
      <stop offset="1" stop-color="#dbe1d0"/>
    </linearGradient>
    <clipPath id="landscape-clip">
      <path d="M160 573V351C160 171 307 77 483 77S831 195 831 365V573Z"/>
    </clipPath>
    <g id="wheel">
      <circle r="111" fill="#263f43"/>
      <circle r="102" fill="#faf4e3"/>
      <circle r="96" fill="none" stroke="#b8c5b3" stroke-width="3"/>
      <g stroke="#b4c4b7" stroke-width="1.5">
        <path d="M0-94V94M-94 0H94"/>
        <path d="M0-94V94M-94 0H94" transform="rotate(20)"/>
        <path d="M0-94V94M-94 0H94" transform="rotate(40)"/>
        <path d="M0-94V94M-94 0H94" transform="rotate(60)"/>
        <path d="M0-94V94M-94 0H94" transform="rotate(80)"/>
      </g>
      <path d="M-46-99A109 109 0 0 1 57-93" fill="none" stroke="#6a7978" stroke-width="2.5" stroke-linecap="round"/>
      <path d="M0-94V-87" stroke="#263f43" stroke-width="3"/>
      <circle r="10" fill="#e1d8ba" stroke="#263f43" stroke-width="3"/>
      <circle r="3.5" fill="#263f43"/>
    </g>
  </defs>

  <!-- A self-contained print: no fonts, bitmaps or external assets are required. -->
  <path fill="#f8f1df" d="M0 0H1000V760H0Z"/>
  <g clip-path="url(#landscape-clip)">
    <path fill="url(#sky)" d="M140 65H850V580H140Z"/>
    <circle cx="717" cy="193" r="62" fill="#f1bf74"/>
    <circle cx="717" cy="193" r="77" fill="none" stroke="#f3d498" stroke-width="1.5"/>
    <g fill="#faf8e9" opacity="0.9">
      <path d="M221 196C218 182 231 172 246 174C249 153 284 150 293 173C316 168 330 181 327 196Z"/>
      <path d="M601 303C602 288 618 285 628 291C636 271 663 275 667 291C680 288 690 295 692 303Z"/>
      <path d="M777 135C777 124 787 119 797 120C803 101 830 106 833 123C846 119 855 125 858 135Z"/>
    </g>
    <path d="M118 411C182 394 220 422 277 405S369 402 411 419C475 391 531 399 598 417S727 398 858 405V590H118Z" fill="#b7d4c2"/>
    <path d="M140 444C232 433 270 449 348 440S518 451 594 441S732 451 857 438V580H140Z" fill="#91bdaf"/>
    <g fill="none" stroke="#dfebd6" stroke-width="3" stroke-linecap="round" opacity="0.9">
      <path d="M190 470H266M220 486H248M685 466H782M731 482H810M466 461H519M163 510H210"/>
      <path d="M789 512H835M533 487H576" stroke-width="2"/>
    </g>
    <path d="M125 552C297 515 348 553 488 538S688 540 856 527V591H125Z" fill="#e3d5af"/>
    <path d="M110 575C237 548 365 574 481 563S703 560 858 548V600H110Z" fill="#efe3c5"/>
    <g fill="none" stroke="#51766e" stroke-width="2.5" stroke-linecap="round">
      <path d="M331 161Q341 151 351 161Q361 153 371 161M602 131Q609 125 616 132Q623 126 631 132"/>
    </g>
  </g>

  <ellipse cx="475" cy="663" rx="303" ry="12" fill="#d9cdae" opacity="0.65"/>
  <path d="M113 660H181M762 660H856" fill="none" stroke="#bcbfa5" stroke-width="2" stroke-linecap="round"/>

  <!-- Wheels and the far leg sit behind the diamond frame. -->
  <use href="#wheel" x="270" y="545"/>
  <use href="#wheel" x="664" y="545"/>
  <path d="M360 373Q338 404 348 445L381 510" fill="none" stroke="#b97c43" stroke-width="17" stroke-linecap="round" stroke-linejoin="round"/>
  <path d="M378 496L398 511L408 526L377 530L364 522L378 517L371 509Z" fill="#d89954" stroke="#805c3c" stroke-width="3" stroke-linejoin="round"/>
  <path d="M376 524L394 522M386 513L399 523" fill="none" stroke="#b97c43" stroke-width="2" stroke-linecap="round"/>
  <path d="M365 533H410" stroke="#263f43" stroke-width="8" stroke-linecap="round"/>

  <!-- Fender, slim rack, chain and enamelled steel tubing. -->
  <g fill="none" stroke-linecap="round" stroke-linejoin="round">
    <path d="M163 503A117 117 0 0 1 343 453" stroke="#274a4a" stroke-width="9"/>
    <path d="M163 501A117 117 0 0 1 343 451" stroke="#dfa764" stroke-width="5"/>
    <path d="M575 469A117 117 0 0 1 752 470" stroke="#274a4a" stroke-width="9"/>
    <path d="M575 467A117 117 0 0 1 752 468" stroke="#dfa764" stroke-width="5"/>
    <path d="M180 416H315M198 416L270 545M302 416L270 545" stroke="#6b8580" stroke-width="4"/>
    <path d="M270 532L439 516A28 28 0 0 1 443 572L269 558A13 13 0 0 1 270 532Z" stroke="#75847a" stroke-width="3.5"/>
    <path d="M270 545L382 410L442 545L270 545M382 410H589L442 545M589 410L664 545" stroke="#264c4b" stroke-width="16"/>
    <path d="M270 545L382 410L442 545L270 545M382 410H589L442 545M589 410L664 545" stroke="#4b9b91" stroke-width="10"/>
    <path d="M382 406H575M296 525L373 429M459 522L574 418" stroke="#8cc4ae" stroke-width="2.5"/>
    <path d="M382 410L372 385" stroke="#263f43" stroke-width="8"/>
    <path d="M587 409L578 369Q574 350 595 347H620" stroke="#263f43" stroke-width="9"/>
    <path d="M587 407L578 369Q574 350 595 347H620" stroke="#b4c7bc" stroke-width="4.5"/>
    <path d="M606 347H629" stroke="#985e3b" stroke-width="11"/>
    <path d="M603 356C646 368 598 413 609 438" stroke="#53736f" stroke-width="2"/>
  </g>
  <path d="M341 384Q362 375 399 383Q411 386 405 394H346Q335 394 341 384Z" fill="#965f40" stroke="#263f43" stroke-width="3"/>
  <path d="M348 383Q371 380 395 385" fill="none" stroke="#d3a274" stroke-width="2.5" stroke-linecap="round"/>
  <circle cx="596" cy="339" r="8" fill="#e8be75" stroke="#294847" stroke-width="2.5"/>
  <path d="M592 335L596 333" stroke="#fff4cb" stroke-width="2" stroke-linecap="round"/>
  <circle cx="442" cy="545" r="28" fill="#e9dfc4" stroke="#2f5551" stroke-width="4"/>
  <circle cx="442" cy="545" r="20" fill="none" stroke="#adc2af" stroke-width="3"/>
  <path d="M391 533L493 556" stroke="#314d4b" stroke-width="6" stroke-linecap="round"/>
  <circle cx="442" cy="545" r="7" fill="#3c6e65"/>
  <path d="M472 559H513" stroke="#263f43" stroke-width="8" stroke-linecap="round"/>

  <!-- A pelican's webbed foot rests on the near pedal. -->
  <path d="M423 371Q432 398 425 421Q423 439 447 451L480 527" fill="none" stroke="#805d3d" stroke-width="21" stroke-linecap="round" stroke-linejoin="round"/>
  <path d="M423 371Q432 398 425 421Q423 439 447 451L480 527" fill="none" stroke="#e5a358" stroke-width="15" stroke-linecap="round" stroke-linejoin="round"/>
  <path d="M475 516Q482 514 488 522L496 537L515 548Q522 554 512 555L467 554Q459 552 466 546L477 538L470 527Z" fill="#eca656" stroke="#805d3d" stroke-width="3" stroke-linejoin="round"/>
  <path d="M481 536L490 551M491 538L502 552M471 547L480 548" fill="none" stroke="#c58445" stroke-width="2" stroke-linecap="round"/>

  <!-- Tail, body and the long unmistakable pelican neck. -->
  <path d="M315 280C281 268 259 255 239 253L263 280L228 275Q247 302 274 314L246 310Q268 335 309 332Z" fill="#e9eadd" stroke="#587269" stroke-width="3" stroke-linejoin="round"/>
  <path d="M301 267C317 230 367 227 411 250C439 239 447 214 449 179C451 138 468 113 499 112C524 110 544 127 544 149C546 170 534 184 521 194C514 211 526 229 531 248C540 287 511 313 487 331C467 351 465 381 428 395C375 415 316 390 288 354C272 333 273 293 301 267Z" fill="url(#feathers)" stroke="#587269" stroke-width="3.5" stroke-linejoin="round"/>
  <path d="M454 166C454 145 464 125 480 120L472 106L486 113L488 98L498 112" fill="#fffdf2" stroke="#587269" stroke-width="3" stroke-linecap="round" stroke-linejoin="round"/>
  <path d="M490 192C480 217 486 241 505 252C514 258 516 272 506 285" fill="none" stroke="#dee3d2" stroke-width="11" stroke-linecap="round"/>
  <path d="M303 351C333 377 376 391 417 382" fill="none" stroke="#fefcf0" stroke-width="9" stroke-linecap="round"/>

  <!-- A coral scarf gives the still image a little sea breeze. -->
  <path d="M463 227C442 229 415 218 398 201L383 209L393 224L376 222C391 246 425 259 462 249Z" fill="#d76c53" stroke="#8c5142" stroke-width="2.5" stroke-linejoin="round"/>
  <path d="M453 239C427 250 409 255 392 254L397 264L383 267C407 280 437 270 463 253Z" fill="#eb8967" stroke="#8c5142" stroke-width="2.5" stroke-linejoin="round"/>
  <path d="M449 225Q480 237 522 226L525 244Q483 256 452 246Z" fill="#e87959" stroke="#8c5142" stroke-width="2.5"/>
  <path d="M459 232Q487 240 510 235M400 218Q420 237 444 240" fill="none" stroke="#f6a17b" stroke-width="3" stroke-linecap="round"/>
  <path d="M452 230Q439 237 448 250Q460 257 470 248L464 235Z" fill="#d96750" stroke="#8c5142" stroke-width="2.5"/>

  <!-- The far wing reaches naturally around the handlebar grip. -->
  <path d="M418 286C449 271 474 303 497 317C529 337 560 335 588 339Q602 340 610 348L596 356L608 361Q591 369 576 361C542 365 502 360 475 347L443 343Z" fill="url(#feathers)" stroke="#587269" stroke-width="3" stroke-linejoin="round"/>
  <path d="M536 348Q557 354 578 352M553 355L575 359" fill="none" stroke="#c3d0be" stroke-width="2.5" stroke-linecap="round"/>

  <!-- Layered feathers are broad, deliberately drawn curves. -->
  <path d="M324 286C349 255 395 261 423 284C443 301 455 321 463 340Q449 348 435 338Q433 354 417 349Q404 360 389 349Q368 357 351 341Q329 332 324 309Q320 300 324 286Z" fill="url(#wing)" stroke="#587269" stroke-width="3" stroke-linejoin="round"/>
  <g fill="none" stroke="#afc1ae" stroke-width="2.5" stroke-linecap="round">
    <path d="M343 282C369 283 413 309 435 337M335 295C359 299 396 326 417 348M333 310C352 314 378 336 389 349"/>
  </g>
  <path d="M342 277Q366 268 388 281" fill="none" stroke="#fffdf2" stroke-width="5" stroke-linecap="round"/>

  <!-- The great bill: a long upper mandible and a deep elastic throat pouch. -->
  <path d="M528 161L735 177C724 202 674 227 627 232C588 234 553 213 526 183Z" fill="url(#pouch)" stroke="#9b6c42" stroke-width="3" stroke-linejoin="round"/>
  <path d="M548 179Q581 214 624 220Q674 219 709 193" fill="none" stroke="#f8d395" stroke-width="6" stroke-linecap="round"/>
  <path d="M528 145C570 143 660 151 713 163Q741 168 749 179Q728 186 703 184L527 169Q521 158 528 145Z" fill="#f5c469" stroke="#9b6c42" stroke-width="3" stroke-linejoin="round"/>
  <path d="M540 150C594 151 657 156 706 166" fill="none" stroke="#ffe3a0" stroke-width="4" stroke-linecap="round"/>
  <path d="M531 169L708 179" fill="none" stroke="#c58945" stroke-width="2.5" stroke-linecap="round"/>
  <path d="M736 174Q746 177 749 179L738 182" fill="#d98550"/>
  <ellipse cx="553" cy="154" rx="4.5" ry="2" fill="#a57a49" transform="rotate(4 553 154)"/>
  <circle cx="509" cy="145" r="12.5" fill="#e9c478"/>
  <circle cx="510" cy="145" r="7.5" fill="#253e41"/>
  <circle cx="512.5" cy="142.5" r="2.5" fill="#fffdf3"/>
  <path d="M497 130Q505 124 514 128" fill="none" stroke="#587269" stroke-width="2.5" stroke-linecap="round"/>
  <path d="M495 165Q500 169 507 167" fill="none" stroke="#d5b992" stroke-width="2.5" stroke-linecap="round"/>

  <!-- Quiet roadside details anchor the composition. -->
  <g fill="none" stroke-linecap="round" stroke-linejoin="round">
    <path d="M827 645Q827 619 815 606M827 645Q840 622 853 619M828 635Q841 605 837 595" stroke="#7b9277" stroke-width="3"/>
    <path d="M824 629Q805 624 805 613Q820 613 824 629M834 626Q849 609 859 613Q856 626 834 626" fill="#a1b38b" stroke="#a1b38b" stroke-width="2"/>
    <path d="M142 633L147 614M142 633L133 619M146 632L156 624" stroke="#8ca07d" stroke-width="3"/>
    <path d="M109 352H150M122 370H165M181 340H195" stroke="#c1cdb5" stroke-width="3"/>
  </g>
  <g fill="#c6bea0">
    <ellipse cx="184" cy="647" rx="5" ry="2"/>
    <ellipse cx="800" cy="656" rx="7" ry="2.5"/>
    <ellipse cx="856" cy="649" rx="3" ry="1.5"/>
  </g>
  <g fill="#304e4d" text-anchor="middle">
    <text x="500" y="707" font-family="Georgia, 'Times New Roman', serif" font-size="26" letter-spacing="4">THE SCENIC ROUTE</text>
    <text x="500" y="733" font-family="Arial, Helvetica, sans-serif" font-size="9" letter-spacing="3.5" fill="#75867a">A LITTLE LESS HURRY. A LITTLE MORE SKY.</text>
  </g>
</svg>
